<svg xmlns="http://www.w3.org/2000/svg" fill="none" width="238" height="59" viewBox="0 0 238 59">
 <g filter="url(#filter0_b_113_7492)">
  <rect fill="#2C4434" width="238" height="59" rx="14" fill-opacity="0.66"/>
  <rect width="237" x="0.5" height="58" stroke="white" rx="13.5" y="0.5"/>
 </g>
 <path fill="white" d="M33.7822 31.3222C33.6747 31.4344 33.5905 31.5667 33.5344 31.7116C33.4163 31.9988 33.4163 32.3211 33.5344 32.6084C33.5905 32.7532 33.6747 32.8855 33.7822 32.9978L37.3222 36.5378C37.5444 36.76 37.8457 36.8848 38.16 36.8848C38.4742 36.8848 38.7756 36.76 38.9978 36.5378C39.22 36.3156 39.3448 36.0142 39.3448 35.7C39.3448 35.3857 39.22 35.0844 38.9978 34.8622L37.4638 33.34H41.7C42.0129 33.34 42.313 33.2156 42.5343 32.9943C42.7556 32.773 42.88 32.4729 42.88 32.16C42.88 31.847 42.7556 31.5469 42.5343 31.3256C42.313 31.1043 42.0129 30.98 41.7 30.98L37.4638 30.98L38.9978 29.4578C39.1084 29.3481 39.1961 29.2176 39.256 29.0738C39.316 28.93 39.3468 28.7757 39.3468 28.62C39.3468 28.4642 39.316 28.3099 39.256 28.1662C39.1961 28.0224 39.1084 27.8919 38.9978 27.7822C38.8881 27.6716 38.7576 27.5838 38.6138 27.5239C38.47 27.464 38.3157 27.4331 38.16 27.4331C38.0042 27.4331 37.8499 27.464 37.7062 27.5239C37.5624 27.5838 37.4319 27.6716 37.3222 27.7822L33.7822 31.3222ZM26.36 32.16C26.36 34.4938 27.052 36.7752 28.3486 38.7157C29.6452 40.6562 31.4881 42.1686 33.6443 43.0617C35.8005 43.9548 38.173 44.1885 40.462 43.7332C42.751 43.2779 44.8536 42.1541 46.5038 40.5038C48.1541 38.8536 49.2779 36.751 49.7332 34.462C50.1885 32.173 49.9548 29.8005 49.0617 27.6443C48.1686 25.4881 46.6562 23.6452 44.7157 22.3486C42.7752 21.052 40.4938 20.36 38.16 20.36C35.0304 20.36 32.029 21.6032 29.8161 23.8161C27.6032 26.029 26.36 29.0304 26.36 32.16V32.16ZM47.6 32.16C47.6 34.027 47.0463 35.8521 46.009 37.4045C44.9717 38.9569 43.4974 40.1669 41.7725 40.8814C40.0476 41.5959 38.1495 41.7828 36.3183 41.4186C34.4871 41.0543 32.8051 40.1553 31.4849 38.835C30.1647 37.5148 29.2656 35.8328 28.9013 34.0016C28.5371 32.1704 28.724 30.2724 29.4385 28.5474C30.153 26.8225 31.363 25.3482 32.9154 24.3109C34.4678 23.2736 36.2929 22.72 38.16 22.72C40.6636 22.72 43.0647 23.7145 44.835 25.4849C46.6054 27.2552 47.6 29.6563 47.6 32.16V32.16Z"/>
 <path fill="white" d="M63.625 38V33.825C63.625 32.775 63.8333 31.9667 64.25 31.4C64.6667 30.8333 65.2583 30.4333 66.025 30.2L66.05 30.1L63.375 29.125V28.475C63.375 27.6583 63.6167 26.9083 64.1 26.225C64.5833 25.5417 65.2917 25 66.225 24.6C67.175 24.1833 68.325 23.975 69.675 23.975C70.9417 23.975 72.0333 24.175 72.95 24.575C73.8667 24.9583 74.575 25.5417 75.075 26.325C75.5917 27.0917 75.85 28.0667 75.85 29.25V38H72.1V29.475C72.1 28.6417 71.875 28.0167 71.425 27.6C70.9917 27.1833 70.375 26.975 69.575 26.975C68.8083 26.975 68.2333 27.1417 67.85 27.475C67.4667 27.7917 67.2583 28.1833 67.225 28.65L69.45 29.675L69.175 31.3C68.575 31.3333 68.125 31.55 67.825 31.95C67.525 32.35 67.375 32.8917 67.375 33.575V38H63.625ZM87.1506 38V29.1C87.1506 28.3 86.9339 27.725 86.5006 27.375C86.0673 27.025 85.4006 26.85 84.5006 26.85C83.6339 26.85 82.7839 26.9833 81.9506 27.25C81.1339 27.5 80.4256 27.8 79.8256 28.15V25.05C80.3089 24.8167 80.9923 24.5833 81.8756 24.35C82.7589 24.1 83.7839 23.975 84.9506 23.975C85.8006 23.975 86.5756 24.0667 87.2756 24.25C87.9923 24.4167 88.6173 24.7083 89.1506 25.125C89.6839 25.525 90.0923 26.0667 90.3756 26.75C90.6756 27.4167 90.8256 28.25 90.8256 29.25V38H87.1506ZM83.0506 38.25C81.6173 38.25 80.5089 37.9083 79.7256 37.225C78.9589 36.5417 78.5756 35.5833 78.5756 34.35C78.5756 33.0167 79.0506 31.95 80.0006 31.15C80.9673 30.35 82.4839 29.8667 84.5506 29.7L87.7506 29.45V32.15L84.9756 32.425C83.9756 32.525 83.2756 32.725 82.8756 33.025C82.4923 33.325 82.3006 33.725 82.3006 34.225C82.3006 34.725 82.4589 35.1 82.7756 35.35C83.1089 35.6 83.5339 35.725 84.0506 35.725C84.2506 35.725 84.4506 35.7083 84.6506 35.675C84.8506 35.625 85.0339 35.575 85.2006 35.525L85.5256 37.875C85.2089 37.9917 84.8339 38.0833 84.4006 38.15C83.9673 38.2167 83.5173 38.25 83.0506 38.25ZM86.9414 22.4C86.1581 22.4 85.5414 22.2833 85.0914 22.05C84.6414 21.8167 84.3247 21.525 84.1414 21.175C83.9414 20.8083 83.8414 20.425 83.8414 20.025C83.8414 19.7417 83.8831 19.4417 83.9664 19.125C84.0497 18.7917 84.1747 18.4833 84.3414 18.2L87.0664 18.55C87.0331 18.6667 87.0081 18.7917 86.9914 18.925C86.9581 19.0417 86.9414 19.15 86.9414 19.25C86.9414 19.4833 87.0164 19.6667 87.1664 19.8C87.2997 19.9167 87.5331 19.975 87.8664 19.975H93.2414V22.4H86.9414ZM100.491 38.325C98.3247 38.325 96.7497 37.825 95.7664 36.825C94.7997 35.8083 94.3164 34.3417 94.3164 32.425V24.3H98.0664V32.625C98.0664 33.5083 98.2581 34.1833 98.6414 34.65C99.0414 35.1 99.6581 35.325 100.491 35.325C101.325 35.325 101.933 35.1 102.316 34.65C102.716 34.1833 102.916 33.5083 102.916 32.625V24.3H106.666V32.425C106.666 34.3417 106.175 35.8083 105.191 36.825C104.225 37.825 102.658 38.325 100.491 38.325ZM117.961 38V29.1C117.961 28.3 117.744 27.725 117.311 27.375C116.878 27.025 116.211 26.85 115.311 26.85C114.444 26.85 113.594 26.9833 112.761 27.25C111.944 27.5 111.236 27.8 110.636 28.15V25.05C111.119 24.8167 111.803 24.5833 112.686 24.35C113.569 24.1 114.586 23.975 115.736 23.975C116.619 23.975 117.411 24.0833 118.111 24.3C118.828 24.5167 119.344 24.9417 119.661 25.575C120.361 25.7917 120.861 26.2167 121.161 26.85C121.478 27.4667 121.636 28.2667 121.636 29.25V38H117.961ZM113.861 38.25C112.428 38.25 111.319 37.9083 110.536 37.225C109.769 36.5417 109.386 35.5833 109.386 34.35C109.386 33.0167 109.861 31.95 110.811 31.15C111.778 30.35 113.294 29.8667 115.361 29.7L118.561 29.45V32.15L115.786 32.425C114.786 32.525 114.086 32.725 113.686 33.025C113.303 33.325 113.111 33.725 113.111 34.225C113.111 34.725 113.269 35.1 113.586 35.35C113.919 35.6 114.344 35.725 114.861 35.725C115.061 35.725 115.261 35.7083 115.461 35.675C115.661 35.625 115.844 35.575 116.011 35.525L116.336 37.875C116.019 37.9917 115.644 38.0833 115.211 38.15C114.778 38.2167 114.328 38.25 113.861 38.25ZM119.586 27.025L117.536 25.3C118.119 25.1 118.578 24.85 118.911 24.55C119.244 24.2333 119.419 23.85 119.436 23.4H122.711C122.711 23.9167 122.603 24.4167 122.386 24.9C122.186 25.3667 121.853 25.7833 121.386 26.15C120.936 26.5167 120.336 26.8083 119.586 27.025ZM117.796 44.625C116.463 44.625 115.488 44.425 114.871 44.025C114.254 43.625 113.946 43.1 113.946 42.45V42.025C113.946 41.7417 113.871 41.5667 113.721 41.5C113.571 41.45 113.371 41.4583 113.121 41.525L112.946 39.85C113.179 39.75 113.479 39.6833 113.846 39.65C114.213 39.6167 114.513 39.6 114.746 39.6C115.479 39.6 116.013 39.7333 116.346 40C116.663 40.2667 116.821 40.6417 116.821 41.125V41.7C116.821 41.9833 116.888 42.2 117.021 42.35C117.138 42.5167 117.363 42.6 117.696 42.6C118.046 42.6 118.288 42.5167 118.421 42.35C118.554 42.2 118.621 41.9833 118.621 41.7V39.675H121.671V42.1C121.671 42.9167 121.363 43.5417 120.746 43.975C120.129 44.4083 119.146 44.625 117.796 44.625ZM118.046 22.4V16.725H121.496V22.4H118.046ZM125.425 38V24.3H129.125V29.425H129.225L133.475 24.3H137.6V24.425L129.125 33.825V38H125.425ZM133.8 38V33.475C133.8 32.5917 133.542 31.9583 133.025 31.575C132.525 31.175 131.792 30.975 130.825 30.975L133.025 28.375C134.025 28.375 134.859 28.575 135.525 28.975C136.192 29.375 136.692 29.9167 137.025 30.6C137.375 31.2667 137.55 32.0333 137.55 32.9V38H133.8ZM145.427 38.25C144.41 38.25 143.552 38.0583 142.852 37.675C142.169 37.275 141.644 36.6833 141.277 35.9C140.927 35.1167 140.752 34.1583 140.752 33.025V24.3H144.502V32.375C144.502 33.2917 144.685 33.9583 145.052 34.375C145.419 34.7917 145.952 35 146.652 35C147.535 35 148.219 34.6667 148.702 34C149.185 33.3167 149.427 32.2667 149.427 30.85V24.3H153.177V38H150.327L149.927 35.9H149.702C149.419 36.5667 148.927 37.125 148.227 37.575C147.544 38.025 146.61 38.25 145.427 38.25ZM145.639 22.425V21.175C145.872 21.1083 146.131 21.0167 146.414 20.9C146.697 20.7833 146.947 20.625 147.164 20.425C147.381 20.225 147.489 19.975 147.489 19.675C147.489 19.4417 147.422 19.2583 147.289 19.125C147.156 18.9917 146.989 18.925 146.789 18.925C146.656 18.925 146.514 18.95 146.364 19C146.214 19.05 146.081 19.1 145.964 19.15L145.489 17.475C145.822 17.1917 146.239 17.0083 146.739 16.925C147.222 16.825 147.631 16.775 147.964 16.775C148.714 16.775 149.306 16.95 149.739 17.3C150.156 17.65 150.364 18.1667 150.364 18.85C150.364 19.2167 150.272 19.5583 150.089 19.875C149.889 20.1917 149.589 20.45 149.189 20.65L149.089 20H153.814V22.425H145.639ZM160.539 38V28.95C160.539 28.25 160.372 27.7417 160.039 27.425C159.722 27.1083 159.197 26.95 158.464 26.95C157.914 26.95 157.406 27.025 156.939 27.175C156.489 27.325 156.064 27.5083 155.664 27.725V24.725C156.031 24.5583 156.547 24.3917 157.214 24.225C157.881 24.0583 158.664 23.975 159.564 23.975C160.481 23.975 161.289 24.1083 161.989 24.375C162.706 24.6417 163.264 25.0917 163.664 25.725C164.081 26.3417 164.289 27.1917 164.289 28.275V38H160.539ZM168.003 38V24.3H171.703V29.425H171.803L176.053 24.3H180.178V24.425L171.703 33.825V38H168.003ZM176.378 38V33.475C176.378 32.5917 176.12 31.9583 175.603 31.575C175.103 31.175 174.37 30.975 173.403 30.975L175.603 28.375C176.603 28.375 177.437 28.575 178.103 28.975C178.77 29.375 179.27 29.9167 179.603 30.6C179.953 31.2667 180.128 32.0333 180.128 32.9V38H176.378ZM191.13 38V29.1C191.13 28.3 190.913 27.725 190.48 27.375C190.047 27.025 189.38 26.85 188.48 26.85C187.613 26.85 186.763 26.9833 185.93 27.25C185.113 27.5 184.405 27.8 183.805 28.15V25.05C184.288 24.8167 184.972 24.5833 185.855 24.35C186.738 24.1 187.763 23.975 188.93 23.975C189.78 23.975 190.555 24.0667 191.255 24.25C191.972 24.4167 192.597 24.7083 193.13 25.125C193.663 25.525 194.072 26.0667 194.355 26.75C194.655 27.4167 194.805 28.25 194.805 29.25V38H191.13ZM187.03 38.25C185.597 38.25 184.488 37.9083 183.705 37.225C182.938 36.5417 182.555 35.5833 182.555 34.35C182.555 33.0167 183.03 31.95 183.98 31.15C184.947 30.35 186.463 29.8667 188.53 29.7L191.73 29.45V32.15L188.955 32.425C187.955 32.525 187.255 32.725 186.855 33.025C186.472 33.325 186.28 33.725 186.28 34.225C186.28 34.725 186.438 35.1 186.755 35.35C187.088 35.6 187.513 35.725 188.03 35.725C188.23 35.725 188.43 35.7083 188.63 35.675C188.83 35.625 189.013 35.575 189.18 35.525L189.505 37.875C189.188 37.9917 188.813 38.0833 188.38 38.15C187.947 38.2167 187.497 38.25 187.03 38.25ZM190.921 22.4C190.138 22.4 189.521 22.2833 189.071 22.05C188.621 21.8167 188.304 21.525 188.121 21.175C187.921 20.8083 187.821 20.425 187.821 20.025C187.821 19.7417 187.863 19.4417 187.946 19.125C188.029 18.7917 188.154 18.4833 188.321 18.2L191.046 18.55C191.013 18.6667 190.988 18.7917 190.971 18.925C190.938 19.0417 190.921 19.15 190.921 19.25C190.921 19.4833 190.996 19.6667 191.146 19.8C191.279 19.9167 191.513 19.975 191.846 19.975H197.221V22.4H190.921ZM198.171 38V33.825C198.171 32.775 198.379 31.9667 198.796 31.4C199.213 30.8333 199.804 30.4333 200.571 30.2L200.596 30.1L197.921 29.125V28.475C197.921 27.6583 198.163 26.9083 198.646 26.225C199.129 25.5417 199.838 25 200.771 24.6C201.721 24.1833 202.871 23.975 204.221 23.975C205.488 23.975 206.579 24.175 207.496 24.575C208.413 24.9583 209.121 25.5417 209.621 26.325C210.138 27.0917 210.396 28.0667 210.396 29.25V38H206.646V29.475C206.646 28.6417 206.421 28.0167 205.971 27.6C205.538 27.1833 204.921 26.975 204.121 26.975C203.354 26.975 202.779 27.1417 202.396 27.475C202.013 27.7917 201.804 28.1833 201.771 28.65L203.996 29.675L203.721 31.3C203.121 31.3333 202.671 31.55 202.371 31.95C202.071 32.35 201.921 32.8917 201.921 33.575V38H198.171Z"/>
 <defs>
  <filter filterUnits="userSpaceOnUse" width="250" x="-6" color-interpolation-filters="sRGB" id="filter0_b_113_7492" height="71" y="-6">
   <feFlood flood-opacity="0" result="BackgroundImageFix"/>
   <feGaussianBlur stdDeviation="3" in="BackgroundImage"/>
   <feComposite operator="in" result="effect1_backgroundBlur_113_7492" in2="SourceAlpha"/>
   <feBlend mode="normal" result="shape" in2="effect1_backgroundBlur_113_7492" in="SourceGraphic"/>
  </filter>
 </defs>
</svg>
